<svg xmlns="http://www.w3.org/2000/svg" width="20" height="20" viewBox="0 0 20 20" fill="none">
  <path d="M 3.708 15.571 C 4.603 14.907 5.578 14.383 6.633 13.998 C 7.687 13.613 8.81 13.421 10 13.421 C 11.19 13.421 12.313 13.613 13.367 13.998 C 14.422 14.383 15.397 14.907 16.292 15.571 C 16.946 14.851 17.464 14.019 17.847 13.073 C 18.23 12.127 18.421 11.103 18.421 10 C 18.421 7.667 17.601 5.68 15.961 4.039 C 14.32 2.399 12.333 1.579 10 1.579 C 7.667 1.579 5.68 2.399 4.039 4.039 C 2.399 5.68 1.579 7.667 1.579 10 C 1.579 11.103 1.77 12.127 2.153 13.073 C 2.536 14.019 3.054 14.851 3.708 15.571 Z M 7.569 9.799 C 6.909 9.14 6.579 8.329 6.579 7.368 C 6.579 6.408 6.909 5.597 7.569 4.937 C 8.229 4.277 9.039 3.947 10 3.947 C 10.961 3.947 11.771 4.277 12.431 4.937 C 13.091 5.597 13.421 6.408 13.421 7.368 C 13.421 8.329 13.091 9.14 12.431 9.799 C 11.771 10.459 10.961 10.789 10 10.789 C 9.039 10.789 8.229 10.459 7.569 9.799 Z M 10 20 C 8.611 20 7.309 19.739 6.092 19.217 C 4.875 18.694 3.817 17.983 2.917 17.083 C 2.017 16.183 1.306 15.125 0.783 13.908 C 0.261 12.691 0 11.389 0 10 C 0 8.611 0.261 7.309 0.783 6.092 C 1.306 4.875 2.017 3.817 2.917 2.917 C 3.817 2.017 4.875 1.306 6.092 0.783 C 7.309 0.261 8.611 0 10 0 C 11.389 0 12.691 0.261 13.908 0.783 C 15.125 1.306 16.183 2.017 17.083 2.917 C 17.983 3.817 18.694 4.875 19.217 6.092 C 19.739 7.309 20 8.611 20 10 C 20 11.389 19.739 12.691 19.217 13.908 C 18.694 15.125 17.983 16.183 17.083 17.083 C 16.183 17.983 15.125 18.694 13.908 19.217 C 12.691 19.739 11.389 20 10 20 Z M 12.748 17.963 C 13.63 17.657 14.413 17.229 15.097 16.68 C 14.413 16.151 13.64 15.739 12.778 15.443 C 11.917 15.148 10.991 15 10 15 C 9.009 15 8.082 15.146 7.217 15.438 C 6.351 15.73 5.58 16.144 4.903 16.68 C 5.587 17.229 6.37 17.657 7.252 17.963 C 8.134 18.268 9.05 18.421 10 18.421 C 10.95 18.421 11.866 18.268 12.748 17.963 Z M 11.314 8.682 C 11.666 8.33 11.842 7.892 11.842 7.368 C 11.842 6.845 11.666 6.407 11.314 6.055 C 10.962 5.702 10.524 5.526 10 5.526 C 9.476 5.526 9.038 5.702 8.686 6.055 C 8.334 6.407 8.158 6.845 8.158 7.368 C 8.158 7.892 8.334 8.33 8.686 8.682 C 9.038 9.034 9.476 9.211 10 9.211 C 10.524 9.211 10.962 9.034 11.314 8.682 Z" fill="currentColor" fill-rule="nonzero"></path>
</svg>