<svg xmlns="http://www.w3.org/2000/svg" width="20" height="20" viewBox="0 0 20 20" fill="none">
  <path d="M 15.066 4.933 C 16.451 6.316 17.143 8.005 17.143 9.999 C 17.143 11.992 16.451 13.681 15.067 15.066 C 13.684 16.451 11.995 17.143 10.001 17.143 C 8.008 17.143 6.319 16.451 4.934 15.067 C 3.549 13.684 2.857 11.995 2.857 10.001 C 2.857 8.008 3.549 6.319 4.933 4.934 C 6.316 3.549 8.005 2.857 9.999 2.857 C 11.992 2.857 13.681 3.549 15.066 4.933 Z M 14.048 14.048 C 15.159 12.937 15.714 11.587 15.714 10 C 15.714 8.413 15.159 7.063 14.048 5.952 C 12.937 4.841 11.587 4.286 10 4.286 C 8.413 4.286 7.063 4.841 5.952 5.952 C 4.841 7.063 4.286 8.413 4.286 10 C 4.286 11.587 4.841 12.937 5.952 14.048 C 7.063 15.159 8.413 15.714 10 15.714 C 11.587 15.714 12.937 15.159 14.048 14.048 Z M 11.947 12.55 C 12.526 12.15 12.945 11.618 13.205 10.952 L 6.795 10.952 C 7.055 11.618 7.474 12.15 8.053 12.55 C 8.632 12.95 9.281 13.15 10 13.15 C 10.719 13.15 11.368 12.95 11.947 12.55 Z M 7.043 8.71 C 7.208 8.874 7.413 8.956 7.657 8.956 C 7.902 8.956 8.106 8.873 8.27 8.708 C 8.434 8.543 8.516 8.338 8.516 8.094 C 8.516 7.849 8.434 7.645 8.269 7.481 C 8.103 7.317 7.898 7.235 7.654 7.235 C 7.41 7.235 7.205 7.317 7.041 7.482 C 6.877 7.648 6.795 7.852 6.795 8.097 C 6.795 8.341 6.878 8.545 7.043 8.71 Z M 11.731 8.71 C 11.897 8.874 12.102 8.956 12.346 8.956 C 12.59 8.956 12.795 8.873 12.959 8.708 C 13.123 8.543 13.205 8.338 13.205 8.094 C 13.205 7.849 13.122 7.645 12.957 7.481 C 12.792 7.317 12.587 7.235 12.343 7.235 C 12.098 7.235 11.894 7.317 11.73 7.482 C 11.566 7.648 11.484 7.852 11.484 8.097 C 11.484 8.341 11.566 8.545 11.731 8.71 Z M 0 4.286 L 0 1.722 C 0 1.248 0.169 0.843 0.506 0.506 C 0.843 0.169 1.248 0 1.722 0 L 4.286 0 L 4.286 1.429 L 1.722 1.429 C 1.636 1.429 1.566 1.456 1.511 1.511 C 1.456 1.566 1.429 1.636 1.429 1.722 L 1.429 4.286 L 0 4.286 Z M 4.286 20 L 1.722 20 C 1.248 20 0.843 19.831 0.506 19.494 C 0.169 19.157 0 18.752 0 18.278 L 0 15.714 L 1.429 15.714 L 1.429 18.278 C 1.429 18.364 1.456 18.434 1.511 18.489 C 1.566 18.544 1.636 18.571 1.722 18.571 L 4.286 18.571 L 4.286 20 Z M 15.714 19.908 L 15.714 18.48 L 18.278 18.48 C 18.364 18.48 18.434 18.452 18.489 18.397 C 18.544 18.342 18.571 18.272 18.571 18.187 L 18.571 15.623 L 20 15.623 L 20 18.187 C 20 18.66 19.831 19.065 19.494 19.403 C 19.157 19.74 18.752 19.908 18.278 19.908 L 15.714 19.908 Z M 18.571 4.286 L 18.571 1.722 C 18.571 1.636 18.544 1.566 18.489 1.511 C 18.434 1.456 18.364 1.429 18.278 1.429 L 15.714 1.429 L 15.714 0 L 18.278 0 C 18.752 0 19.157 0.169 19.494 0.506 C 19.831 0.843 20 1.248 20 1.722 L 20 4.286 L 18.571 4.286 Z" fill="currentColor" fill-rule="nonzero"></path>
</svg>