<svg xmlns="http://www.w3.org/2000/svg" width="64.103" height="93.011" viewBox="0 0 64.103 93.011" fill="none">
  <path d="M -10.256 93.011 C -10.256 98.675 -5.664 103.267 0 103.267 C 5.664 103.267 10.256 98.675 10.256 93.011 L 0 93.011 L -10.256 93.011 Z M 67.751 9.585 C 73.045 7.57 75.703 1.645 73.688 -3.649 C 71.673 -8.943 65.748 -11.601 60.454 -9.585 L 64.103 0 L 67.751 9.585 Z M 0 93.011 L 10.256 93.011 C 10.256 54.924 34.123 22.386 67.751 9.585 L 64.103 0 L 60.454 -9.585 C 19.132 6.144 -10.256 46.132 -10.256 93.011 L 0 93.011 Z" fill="currentColor" fill-rule="nonzero"></path>
</svg>