<svg xmlns="http://www.w3.org/2000/svg" width="198.974" height="99.487" viewBox="0 0 198.974 99.487" fill="none">
  <path d="M -10.256 99.487 C -10.256 105.152 -5.664 109.744 0 109.744 C 5.664 109.744 10.256 105.152 10.256 99.487 L 0 99.487 L -10.256 99.487 Z M 188.718 99.487 C 188.718 105.152 193.31 109.744 198.974 109.744 C 204.639 109.744 209.231 105.152 209.231 99.487 L 198.974 99.487 L 188.718 99.487 Z M 0 99.487 L 10.256 99.487 C 10.256 50.206 50.206 10.256 99.487 10.256 L 99.487 0 L 99.487 -10.256 C 38.877 -10.256 -10.256 38.877 -10.256 99.487 L 0 99.487 Z M 99.487 0 L 99.487 10.256 C 148.768 10.256 188.718 50.206 188.718 99.487 L 198.974 99.487 L 209.231 99.487 C 209.231 38.877 160.097 -10.256 99.487 -10.256 L 99.487 0 Z" fill="currentColor" fill-rule="nonzero"></path>
</svg>