<svg xmlns="http://www.w3.org/2000/svg" width="24" height="24" viewBox="0 0 24 24" fill="none">
  <path d="M 12.724 17.679 C 12.921 17.482 13.02 17.24 13.02 16.955 C 13.02 16.67 12.921 16.429 12.724 16.232 C 12.526 16.034 12.285 15.935 12 15.935 C 11.715 15.935 11.474 16.034 11.276 16.232 C 11.079 16.429 10.98 16.67 10.98 16.955 C 10.98 17.24 11.079 17.482 11.276 17.679 C 11.474 17.877 11.715 17.976 12 17.976 C 12.285 17.976 12.526 17.877 12.724 17.679 Z M 11.053 13.36 L 12.947 13.36 L 12.947 5.781 L 11.053 5.781 L 11.053 13.36 Z M 12.002 24 C 10.342 24 8.782 23.685 7.322 23.055 C 5.861 22.425 4.591 21.57 3.511 20.491 C 2.431 19.411 1.575 18.141 0.945 16.681 C 0.315 15.221 0 13.662 0 12.002 C 0 10.342 0.315 8.782 0.945 7.322 C 1.575 5.861 2.43 4.591 3.509 3.511 C 4.589 2.431 5.859 1.575 7.319 0.945 C 8.779 0.315 10.338 0 11.998 0 C 13.658 0 15.218 0.315 16.678 0.945 C 18.139 1.575 19.409 2.43 20.489 3.509 C 21.569 4.589 22.425 5.859 23.055 7.319 C 23.685 8.779 24 10.338 24 11.998 C 24 13.658 23.685 15.218 23.055 16.678 C 22.425 18.139 21.57 19.409 20.491 20.489 C 19.411 21.569 18.141 22.425 16.681 23.055 C 15.221 23.685 13.662 24 12.002 24 Z M 12 22.105 C 14.821 22.105 17.211 21.126 19.168 19.168 C 21.126 17.211 22.105 14.821 22.105 12 C 22.105 9.179 21.126 6.789 19.168 4.832 C 17.211 2.874 14.821 1.895 12 1.895 C 9.179 1.895 6.789 2.874 4.832 4.832 C 2.874 6.789 1.895 9.179 1.895 12 C 1.895 14.821 2.874 17.211 4.832 19.168 C 6.789 21.126 9.179 22.105 12 22.105 Z" fill="currentColor" fill-rule="nonzero"></path>
</svg>