<svg xmlns="http://www.w3.org/2000/svg" width="24" height="24" viewBox="0 0 24 24" fill="none">
  <path d="M 2.552 24 C 1.839 24 1.235 23.753 0.741 23.259 C 0.247 22.765 0 22.161 0 21.448 L 0 2.552 C 0 1.839 0.247 1.235 0.741 0.741 C 1.235 0.247 1.839 0 2.552 0 L 21.448 0 C 22.161 0 22.765 0.247 23.259 0.741 C 23.753 1.235 24 1.839 24 2.552 L 24 21.448 C 24 22.161 23.753 22.765 23.259 23.259 C 22.765 23.753 22.161 24 21.448 24 L 2.552 24 Z M 2.552 21.882 L 21.448 21.882 C 21.557 21.882 21.656 21.837 21.746 21.746 C 21.837 21.656 21.882 21.557 21.882 21.448 L 21.882 2.552 C 21.882 2.443 21.837 2.344 21.746 2.254 C 21.656 2.163 21.557 2.118 21.448 2.118 L 2.552 2.118 C 2.443 2.118 2.344 2.163 2.254 2.254 C 2.163 2.344 2.118 2.443 2.118 2.552 L 2.118 21.448 C 2.118 21.557 2.163 21.656 2.254 21.746 C 2.344 21.837 2.443 21.882 2.552 21.882 Z M 4.588 18.706 L 19.52 18.706 L 14.878 12.516 L 10.914 17.674 L 8.09 14.063 L 4.588 18.706 Z M 8.308 8.308 C 8.652 7.964 8.824 7.548 8.824 7.059 C 8.824 6.57 8.652 6.154 8.308 5.81 C 7.964 5.466 7.548 5.294 7.059 5.294 C 6.57 5.294 6.154 5.466 5.81 5.81 C 5.466 6.154 5.294 6.57 5.294 7.059 C 5.294 7.548 5.466 7.964 5.81 8.308 C 6.154 8.652 6.57 8.824 7.059 8.824 C 7.548 8.824 7.964 8.652 8.308 8.308 Z" fill="currentColor" fill-rule="nonzero"></path>
</svg>