<svg xmlns="http://www.w3.org/2000/svg" width="16" height="20" viewBox="0 0 16 20" fill="none">
  <path d="M 0 17.074 L 0 15.511 L 1.928 15.511 L 1.928 7.735 C 1.928 6.334 2.371 5.095 3.257 4.018 C 4.142 2.941 5.279 2.252 6.667 1.952 L 6.667 1.303 C 6.667 0.941 6.796 0.633 7.055 0.38 C 7.314 0.127 7.629 0 7.999 0 C 8.369 0 8.684 0.127 8.943 0.38 C 9.203 0.633 9.333 0.941 9.333 1.303 L 9.333 1.952 C 10.721 2.252 11.858 2.941 12.743 4.018 C 13.629 5.095 14.072 6.334 14.072 7.735 L 14.072 15.511 L 16 15.511 L 16 17.074 L 0 17.074 Z M 7.998 20 C 7.467 20 7.014 19.816 6.637 19.447 C 6.26 19.078 6.072 18.634 6.072 18.116 L 9.928 18.116 C 9.928 18.636 9.739 19.08 9.361 19.448 C 8.983 19.816 8.529 20 7.998 20 Z M 3.528 15.511 L 12.472 15.511 L 12.472 7.735 C 12.472 6.529 12.035 5.499 11.162 4.646 C 10.289 3.793 9.235 3.367 8 3.367 C 6.765 3.367 5.711 3.793 4.838 4.646 C 3.965 5.499 3.528 6.529 3.528 7.735 L 3.528 15.511 Z" fill="currentColor" fill-rule="nonzero"></path>
</svg>