<svg xmlns="http://www.w3.org/2000/svg" width="21" height="24" viewBox="0 0 21 24" fill="none">
  <path d="M 11.699 24 L 11.699 21.652 C 12.362 21.556 13.01 21.384 13.644 21.136 C 14.278 20.888 14.877 20.563 15.443 20.162 L 17.081 21.823 C 16.262 22.434 15.404 22.926 14.507 23.298 C 13.61 23.671 12.674 23.905 11.699 24 Z M 9.359 24 C 6.669 23.656 4.436 22.516 2.662 20.578 C 0.887 18.64 0 16.363 0 13.747 C 0 12.315 0.278 10.974 0.834 9.723 C 1.389 8.473 2.14 7.384 3.086 6.458 C 4.031 5.532 5.143 4.797 6.42 4.253 C 7.697 3.709 9.067 3.437 10.529 3.437 L 10.705 3.437 L 8.891 1.661 L 10.529 0 L 15.209 4.582 L 10.529 9.165 L 8.891 7.561 L 10.763 5.728 L 10.529 5.728 C 8.248 5.728 6.313 6.506 4.724 8.062 C 3.134 9.618 2.34 11.513 2.34 13.747 C 2.34 15.733 3.003 17.475 4.329 18.974 C 5.655 20.473 7.331 21.365 9.359 21.652 L 9.359 24 Z M 18.777 20.162 L 17.081 18.558 C 17.49 18.005 17.822 17.418 18.075 16.797 C 18.329 16.177 18.504 15.542 18.602 14.893 L 21 14.893 C 20.903 15.847 20.664 16.764 20.283 17.642 C 19.903 18.52 19.401 19.36 18.777 20.162 Z M 21 12.601 L 18.602 12.601 C 18.504 11.952 18.329 11.317 18.075 10.697 C 17.822 10.076 17.49 9.489 17.081 8.936 L 18.777 7.332 C 19.401 8.076 19.898 8.897 20.269 9.795 C 20.639 10.692 20.883 11.628 21 12.601 Z" fill="currentColor" fill-rule="nonzero"></path>
</svg>