<svg xmlns="http://www.w3.org/2000/svg" width="4" height="8" viewBox="0 0 4 8" fill="none">
  <path d="M 0.354 -0.354 C 0.158 -0.549 -0.158 -0.549 -0.354 -0.354 C -0.549 -0.158 -0.549 0.158 -0.354 0.354 L 0 0 L 0.354 -0.354 Z M 4 4 L 4.354 4.354 C 4.549 4.158 4.549 3.842 4.354 3.647 L 4 4 Z M -0.354 7.646 C -0.549 7.842 -0.549 8.158 -0.354 8.354 C -0.158 8.549 0.158 8.549 0.354 8.354 L 0 8 L -0.354 7.646 Z M 0 0 L -0.354 0.354 L 3.646 4.354 L 4 4 L 4.354 3.647 L 0.354 -0.354 L 0 0 Z M 4 4 L 3.646 3.647 L -0.354 7.646 L 0 8 L 0.354 8.354 L 4.354 4.354 L 4 4 Z" fill="currentColor" fill-rule="nonzero"></path>
</svg>