<svg xmlns="http://www.w3.org/2000/svg" width="24" height="24" viewBox="0 0 24 24" fill="none">
  <path d="M 1.405 24 L 0 22.595 L 10.174 12.4 L 4.346 10.964 L 10.433 7.185 L 9.905 0 L 15.397 4.636 L 22.033 1.933 L 19.364 8.59 L 24 14.061 L 16.815 13.567 L 13.015 19.654 L 11.567 13.826 L 1.405 24 Z M 2.192 6.538 L 0 4.346 L 2.192 2.154 L 4.385 4.346 L 2.192 6.538 Z M 13.833 14.58 L 15.741 11.472 L 19.392 11.744 L 17.033 8.941 L 18.405 5.561 L 15.026 6.933 L 12.223 4.595 L 12.495 8.226 L 9.4 10.154 L 12.938 11.028 L 13.833 14.58 Z M 19.654 24 L 17.462 21.808 L 19.654 19.615 L 21.846 21.808 L 19.654 24 Z" fill="currentColor" fill-rule="nonzero"></path>
</svg>